<svg xmlns="http://www.w3.org/2000/svg" height="193.115" width="194.337"><path d="M1.222 92.891l40.945 99 150.947-55-28.723-80.668-146.058 51.335s132-80.668 131.391-82.5-14.055-23.834-14.055-23.834z" fill="#555556" stroke="#3e4147" stroke-linecap="round" stroke-linejoin="round" stroke-width="2.444"/><path d="M149.724 25.056c-.611-1.833-14.055-23.834-14.055-23.834L1.222 92.891l14.727 35.608 156.685-49.126-8.243-23.15-146.058 51.335S150.336 26.89 149.724 25.056z" fill="#fcf6dc" stroke="#3e4147" stroke-linecap="round" stroke-linejoin="round" stroke-width="2.444"/><g fill="#555556"><path d="M44.86 91.294c6.369-3.914 13.5-8.3 20.989-12.921l7.348-34.557-21.334 14.547zM81.929 68.437c7.084-4.386 14.2-8.8 21.017-13.054l7.921-37.251-21.334 14.547zM9.466 112.823l6.483 15.676 9.027-2.831 4.7-22.1-11.341 3.986s4.6-2.809 12.065-7.387l6.757-31.781-21.334 14.547zM129.326 5.551l-8.171 38.427c8.66-5.46 16.031-10.17 21.118-13.53l2.872-13.5c-4.107-6.931-9.476-15.718-9.476-15.718zM134.562 66.707l-19.715 6.929-5.435 25.558 19.544-6.128zM169.646 70.981l-5.255-14.758-10.644 3.741-5.771 27.139 19.544-6.128zM62.98 91.866l-19.715 6.929-4.816 22.649 19.544-6.128zM97.789 79.632l-19.715 6.929-5.117 24.064 19.544-6.128z"/></g><path d="M149.724 25.056c-.611-1.833-14.055-23.834-14.055-23.834L1.222 92.891l14.727 35.608 156.685-49.126-8.243-23.15-146.058 51.335S150.336 26.89 149.724 25.056z" fill="none" stroke="#3e4147" stroke-linecap="round" stroke-linejoin="round" stroke-width="2.444"/><path d="M40.057 141.454L167.54 99.329M50.033 158.636L170.865 121.5" fill="none" stroke="#fcf6dc" stroke-linecap="round" stroke-linejoin="round" stroke-width="2.217"/></svg>
